<?xml version="1.0" standalone="no"?>
<!DOCTYPE svg PUBLIC "-//W3C//DTD SVG 20010904//EN"
 "http://www.w3.org/TR/2001/REC-SVG-20010904/DTD/svg10.dtd">
<svg version="1.0" xmlns="http://www.w3.org/2000/svg"
 width="1027.000000pt" height="646.000000pt" viewBox="0 0 1027.000000 646.000000"
 preserveAspectRatio="xMidYMid meet" id="istiklol">
<metadata>
Created by potrace 1.15, written by Peter Selinger 2001-2017
</metadata>
<g transform="translate(0.000000,646.000000) scale(0.100000,-0.100000)"
fill="#000000" stroke="none">
<path d="M2034 6416 c-17 -17 -34 -38 -37 -47 -8 -24 -217 -127 -387 -192 -80
-31 -244 -88 -365 -127 -607 -196 -829 -277 -1042 -381 l-123 -59 0 -440 0
-440 263 0 262 0 19 138 c11 75 23 162 26 192 12 91 59 241 95 306 53 94 127
155 274 225 183 88 352 159 376 159 22 0 195 69 224 89 14 10 44 21 66 25 52
10 299 102 350 131 22 13 60 26 85 30 25 4 1204 11 2620 16 1439 5 2692 13
2840 19 325 13 392 13 595 3 l160 -8 110 -69 c61 -38 154 -98 208 -133 54 -35
119 -75 145 -89 26 -14 56 -33 67 -43 11 -10 82 -59 157 -109 351 -234 468
-362 547 -598 34 -104 60 -208 64 -266 1 -17 17 -18 289 -18 l288 0 -2 402 -3
401 -275 83 c-151 46 -287 84 -302 84 -15 0 -66 18 -113 40 -47 22 -89 40 -91
40 -15 0 -184 84 -184 91 0 5 -7 9 -16 9 -8 0 -102 47 -207 104 -106 57 -326
174 -489 259 -164 84 -295 157 -291 160 3 4 -6 7 -20 7 -20 0 -27 5 -27 20 0
20 -6 20 -3062 19 l-3063 -2 -31 -31z" />
<path d="M2230 5970 c0 -5 -7 -10 -15 -10 -8 0 -15 -6 -15 -13 0 -12 -245
-208 -403 -320 -248 -178 -403 -231 -842 -291 -193 -26 -230 -36 -239 -70 -3
-11 -6 -101 -6 -198 l0 -178 1570 0 1570 0 0 150 0 150 -125 0 -125 0 0 285 0
285 125 0 125 0 0 110 0 110 -810 0 c-533 0 -810 -3 -810 -10z"/>
<path d="M3890 5870 l0 -110 121 0 121 0 -7 -147 c-8 -182 -22 -298 -41 -334
-16 -33 -58 -67 -91 -75 -12 -4 -23 -10 -23 -15 0 -5 -18 -9 -40 -9 l-40 0 0
-130 0 -130 1240 0 1240 0 0 134 0 133 -70 5 c-106 8 -129 30 -150 141 -9 43
-40 366 -40 410 0 15 11 17 84 17 46 0 104 3 130 6 l46 7 0 97 0 97 -272 6
c-150 3 -708 6 -1240 6 l-968 1 0 -110z m1880 -705 l0 -105 -635 0 -635 0 0
105 0 105 635 0 635 0 0 -105z"/>
<path d="M6448 5972 l-58 -3 0 -99 c0 -59 4 -101 11 -105 5 -4 55 -9 110 -12
l99 -6 0 -273 0 -274 -79 0 c-43 0 -93 -3 -110 -6 l-31 -6 0 -124 0 -124 1535
0 1535 0 0 125 0 125 -27 0 c-16 0 -129 38 -253 83 -505 187 -623 254 -791
451 -38 44 -85 97 -104 117 -19 20 -35 41 -35 45 0 5 -17 27 -36 49 l-36 40
-837 0 c-460 0 -862 -1 -893 -3z"/>
<path d="M6420 4135 l0 -755 1210 0 1210 0 0 520 0 520 -35 0 c-43 0 -380 117
-491 170 -81 39 -194 129 -194 155 0 8 -8 16 -18 19 -23 8 -82 85 -82 108 0
17 -33 18 -800 18 l-800 0 0 -755z"/>
<path d="M3890 4135 l0 -745 1245 0 1245 0 0 745 0 745 -1245 0 -1245 0 0
-745z"/>
<path d="M2370 4850 c0 -12 -7 -20 -16 -20 -21 0 -114 -43 -114 -52 0 -5 -10
-8 -22 -8 -12 0 -99 -38 -193 -85 -204 -101 -329 -145 -413 -145 l-59 0 -7
-46 c-9 -67 -8 -1106 1 -1113 5 -3 527 -5 1161 -3 l1152 2 0 745 0 745 -745 0
c-738 0 -745 0 -745 -20z" id="A"/>
<path d="M240 3885 c0 -55 13 -92 38 -108 17 -11 83 -143 75 -151 -4 -3 -1 -6
5 -6 7 0 12 -9 12 -21 0 -13 -4 -18 -12 -13 -7 4 -8 3 -4 -5 4 -6 11 -9 16 -6
18 11 25 -51 23 -188 l-3 -138 263 6 c324 7 400 7 605 0 l162 -6 0 345 0 346
-590 0 -590 0 0 -55z"/>
<path d="M8861 3596 l0 -345 514 -1 514 0 -2 142 c-2 115 1 152 15 191 25 67
85 184 100 194 25 16 38 53 38 108 l0 55 -590 0 -590 0 1 -344z"/>
<path d="M1939 3333 c0 -42 0 -1854 1 -1890 0 -13 5 -23 11 -23 16 0 89 -72
83 -82 -3 -4 3 -8 14 -8 10 0 28 -10 39 -22 36 -40 83 -121 83 -145 l0 -23
845 0 845 0 0 1115 0 1115 -960 0 -960 0 -1 -37z"/>
<path d="M3880 2240 l0 -1120 1260 0 1260 0 0 1120 0 1120 -1260 0 -1260 0 0
-1120z"/>
<path d="M6420 2260 l0 -1100 845 0 845 0 0 28 c0 15 14 49 30 76 35 54 109
96 173 96 l37 0 1 503 c1 598 1 1431 0 1470 l-1 27 -965 0 -965 0 0 -1100z"/>
<path d="M8700 2890 l0 -330 450 0 450 0 0 37 c0 48 36 182 59 219 20 33 150
114 182 114 20 0 20 4 17 145 l-3 145 -577 0 -578 0 0 -330z"/>
<path d="M410 3045 c0 -138 1 -145 20 -145 31 0 161 -82 181 -114 22 -37 59
-171 59 -218 l0 -35 450 -1 450 0 0 328 0 328 -580 1 -580 0 0 -144z"/>
<path d="M8630 2090 l0 -390 290 0 290 0 0 28 c0 49 87 260 134 325 24 34 87
104 140 156 53 51 96 98 96 102 0 5 9 9 20 9 18 0 20 7 20 80 l0 80 -495 0
-495 0 0 -390z"/>
<path d="M640 2380 c0 -73 2 -80 20 -80 11 0 20 -4 20 -9 0 -4 43 -51 96 -102
53 -52 116 -122 140 -156 47 -65 134 -276 134 -325 l0 -28 290 0 290 0 0 390
0 390 -495 0 -495 0 0 -80z"/>
<path d="M2918 1038 c-6 -87 5 -97 165 -148 73 -24 140 -47 150 -52 10 -5 143
-52 295 -105 152 -53 280 -100 283 -105 3 -6 10 -8 15 -6 5 1 10 -7 12 -19 l3
-23 640 0 639 0 0 260 0 260 -1099 0 -1099 0 -4 -62z"/>
<path d="M5160 840 l0 -260 620 0 c544 0 620 2 620 15 0 8 7 15 15 15 8 0 15
5 15 10 0 6 10 10 23 10 12 0 235 52 495 117 l472 118 0 117 0 118 -1130 0
-1130 0 0 -260z"/>
<path id="scene" d="M2440 285 l0 -255 2645 0 2645 0 0 255 0 255 -2645 0 -2645 0 0 -255z"/>
</g>
</svg>
