<?xml version="1.0" ?><svg id="Layer_1" style="enable-background:new 0 0 512 512;" version="1.1" viewBox="0 0 512 512" xml:space="preserve" xmlns="http://www.w3.org/2000/svg" xmlns:xlink="http://www.w3.org/1999/xlink"><style type="text/css">
	.st0{fill:#EFA21B;}
</style><g id="XMLID_186_"><path class="st0" d="M431.1,273.3c-0.5,0-1,0.1-1.3,0.4c-0.3,0.3-0.4,0.6-0.4,1c0,0.5,0.1,0.9,0.4,1.2   c0.3,0.3,0.7,0.4,1.3,0.4c0.6,0,1-0.1,1.3-0.4c0.3-0.3,0.5-0.7,0.5-1.2c0-0.4-0.2-0.8-0.5-1C432.2,273.5,431.7,273.3,431.1,273.3z" id="XMLID_326_"/><path class="st0" d="M439.2,235.5c-0.5-0.3-1.2-0.5-2.2-0.5h-4.6c-1,0-1.7,0.2-2.2,0.5c-0.5,0.3-0.7,0.8-0.7,1.3   c0,0.6,0.3,1,0.7,1.3c0.5,0.3,1.2,0.5,2.2,0.5h4.6c1,0,1.7-0.2,2.2-0.5c0.5-0.3,0.7-0.8,0.7-1.4   C439.9,236.2,439.7,235.8,439.2,235.5z" id="XMLID_325_"/><path class="st0" d="M439.2,298.9c-0.5-0.3-1.1-0.5-1.8-0.5c-0.8,0-1.4,0.2-1.8,0.5c-0.4,0.3-0.7,0.8-0.7,1.3   c0,0.5,0.1,1,0.2,1.3c0.1,0.4,0.3,0.7,0.6,0.9h0.7c1.1,0,2-0.2,2.6-0.6c0.6-0.4,0.9-0.9,0.9-1.6   C439.9,299.6,439.7,299.2,439.2,298.9z" id="XMLID_324_"/><path class="st0" d="M439.2,248.2c-0.5-0.3-1.2-0.5-2.2-0.5h-4.6c-1,0-1.7,0.2-2.2,0.5c-0.5,0.3-0.7,0.8-0.7,1.3   c0,0.6,0.3,1,0.7,1.3c0.5,0.3,1.2,0.5,2.2,0.5h4.6c1,0,1.7-0.2,2.2-0.5c0.5-0.3,0.7-0.8,0.7-1.4   C439.9,248.9,439.7,248.5,439.2,248.2z" id="XMLID_323_"/><polygon class="st0" id="XMLID_322_" points="431.5,312.6 432.3,313 436.4,315.8 436.4,312.5 431.5,312.5  "/><path class="st0" d="M437.9,272.8c-0.6,0-1.1,0.2-1.5,0.6c-0.4,0.4-0.6,0.8-0.6,1.4c0,0.6,0.2,1.1,0.6,1.5   c0.4,0.4,0.9,0.6,1.5,0.6c0.6,0,1.1-0.2,1.5-0.6c0.4-0.4,0.6-0.9,0.6-1.6c0-0.6-0.2-1-0.5-1.4C439,273,438.5,272.8,437.9,272.8z" id="XMLID_321_"/><path class="st0" d="M433.9,260.5h-1.7c-0.9,0-1.6,0.2-2,0.5c-0.5,0.3-0.7,0.8-0.7,1.3c0,0.6,0.3,1,0.8,1.3   c0.5,0.3,1.2,0.5,1.9,0.5c0.8,0,1.4-0.1,1.9-0.4c0.5-0.3,0.7-0.7,0.7-1.3c0-0.4-0.1-0.8-0.2-1.1   C434.4,260.9,434.2,260.7,433.9,260.5z" id="XMLID_320_"/><path class="st0" d="M439.2,159.2c-0.5-0.3-1.2-0.5-2.2-0.5h-4.6c-1,0-1.7,0.2-2.2,0.5c-0.5,0.3-0.7,0.8-0.7,1.3   c0,0.6,0.3,1,0.7,1.3c0.5,0.3,1.2,0.5,2.2,0.5h4.6c1,0,1.7-0.2,2.2-0.5c0.5-0.3,0.7-0.8,0.7-1.4C439.9,160,439.7,159.5,439.2,159.2   z" id="XMLID_319_"/><path class="st0" d="M196.9,309c-0.6,0-1.1,0.2-1.5,0.6c-0.4,0.4-0.6,0.9-0.6,1.5c0,0.6,0.2,1.1,0.6,1.5   c0.4,0.4,0.9,0.6,1.6,0.6c0.6,0,1-0.2,1.4-0.5c0.4-0.4,0.6-0.9,0.6-1.5c0-0.6-0.2-1.1-0.6-1.5C197.9,309.2,197.5,309,196.9,309z" id="XMLID_318_"/><polygon class="st0" id="XMLID_317_" points="158.7,305.5 155.9,309.6 159.2,309.6 159.2,304.7 159.1,304.7  "/><path class="st0" d="M171.5,308.2c-0.5,0-1,0.1-1.3,0.2c-0.4,0.1-0.7,0.3-0.9,0.6v0.7c0,1.1,0.2,2,0.6,2.6   c0.4,0.6,0.9,0.9,1.6,0.9c0.5,0,1-0.2,1.3-0.7c0.3-0.5,0.5-1.1,0.5-1.8c0-0.8-0.2-1.4-0.5-1.8C172.5,308.4,172.1,308.2,171.5,308.2   z" id="XMLID_316_"/><path class="st0" d="M196.9,306.2c0.4,0,0.8-0.2,1-0.5c0.2-0.3,0.4-0.8,0.4-1.3c0-0.5-0.1-1-0.4-1.3   s-0.6-0.4-1-0.4c-0.5,0-0.9,0.1-1.2,0.4c-0.3,0.3-0.4,0.7-0.4,1.3c0,0.6,0.1,1,0.4,1.3C196.1,306.1,196.4,306.2,196.9,306.2z" id="XMLID_315_"/><path class="st0" d="M222.1,302.7c-0.6,0-1,0.3-1.3,0.7c-0.3,0.5-0.5,1.2-0.5,2.2v4.6c0,1,0.2,1.7,0.5,2.2   c0.3,0.5,0.8,0.7,1.4,0.7c0.6,0,1-0.2,1.3-0.7c0.3-0.5,0.5-1.2,0.5-2.2v-4.6c0-1-0.2-1.7-0.5-2.2   C223.2,302.9,222.7,302.7,222.1,302.7z" id="XMLID_314_"/><path class="st0" d="M234.8,302.7c-0.6,0-1,0.3-1.3,0.7c-0.3,0.5-0.5,1.2-0.5,2.2v4.6c0,1,0.2,1.7,0.5,2.2   c0.3,0.5,0.8,0.7,1.4,0.7c0.6,0,1-0.2,1.3-0.7c0.3-0.5,0.5-1.2,0.5-2.2v-4.6c0-1-0.2-1.7-0.5-2.2   C235.9,302.9,235.4,302.7,234.8,302.7z" id="XMLID_313_"/><path class="st0" d="M209.4,302.7c-0.6,0-1,0.3-1.3,0.8c-0.3,0.5-0.5,1.2-0.5,1.9c0,0.8,0.1,1.4,0.4,1.9   c0.3,0.5,0.7,0.7,1.3,0.7c0.4,0,0.8-0.1,1.1-0.2c0.3-0.2,0.6-0.4,0.8-0.6v-1.7c0-0.9-0.2-1.6-0.5-2   C210.4,302.9,209.9,302.7,209.4,302.7z" id="XMLID_312_"/><path class="st0" d="M311.1,302.7c-0.6,0-1,0.3-1.3,0.7c-0.3,0.5-0.5,1.2-0.5,2.2v4.6c0,1,0.2,1.7,0.5,2.2   c0.3,0.5,0.8,0.7,1.4,0.7c0.6,0,1-0.2,1.3-0.7c0.3-0.5,0.5-1.2,0.5-2.2v-4.6c0-1-0.2-1.7-0.5-2.2   C312.1,302.9,311.7,302.7,311.1,302.7z" id="XMLID_311_"/><path class="st0" d="M479.4,133.7H32.6C17.9,133.7,6,145.6,6,160.3v191.5c0,14.7,11.9,26.6,26.6,26.6h375.7v-14.6   h10.6v14.6h60.5c14.7,0,26.6-11.9,26.6-26.6V160.3C506,145.6,494.1,133.7,479.4,133.7z M271.7,179.7h12.6V234h-12.6V179.7z    M256.6,254.8v-5.4h23v5.4h-8v25h-7.1v-25H256.6z M231,179.7l10.6,39.6l0.4,2h0.2l0.4-1.8l10.8-39.7h13.2L249,234h-13.6l-17.5-54.3   H231z M252.3,261.3v5.4h-10.7v7.6h12.8v5.4h-19.9v-30.4h19.9v5.4h-12.9v6.5H252.3z M169.2,202c0-6.7,2.1-12.2,6.4-16.5   c4.3-4.4,9.8-6.5,16.7-6.5c6.8,0,12.4,2.2,16.6,6.5c4.3,4.4,6.4,9.9,6.4,16.5v9.8c0,6.7-2.1,12.2-6.4,16.5   c-4.2,4.3-9.8,6.5-16.6,6.5c-6.9,0-12.5-2.2-16.7-6.5c-4.3-4.3-6.4-9.8-6.4-16.5V202z M167.7,249.3h7v30.4h-7V249.3z M141.5,254.8   v-5.4h23v5.4h-8v25h-7.1v-25H141.5z M103.7,179.7h16.5l12.2,38h0.2l12.3-38h16.7V234h-12.6v-35l-0.2,0l-12,35h-8.5l-11.7-34.5   l-0.2,0V234h-12.6V179.7z M113.7,358.2h-3.3v-38.6h3.3V358.2z M121.3,358.2h-5.6v-38.6h5.6V358.2z M123.1,315.7h-3.6v-12.5h-3.1   v-2.8l6.8-0.6V315.7z M126.2,358.2h-2.3v-38.6h2.3V358.2z M134.2,303.2c-0.3-0.4-0.7-0.5-1.3-0.5c-0.6,0-1,0.2-1.3,0.7   c-0.3,0.5-0.5,1-0.5,1.8h-3.5l0-0.1c0-1.4,0.4-2.7,1.4-3.7c1-1,2.3-1.5,3.9-1.5c1.7,0,3,0.4,4,1.3c0.9,0.8,1.4,2,1.4,3.5   c0,1-0.3,1.9-0.8,2.6c-0.5,0.8-1.5,1.9-2.8,3.4l-1.9,2.3l0,0.1h6v2.8h-10.8v-2.4l4.8-5.3c0.6-0.7,1.1-1.4,1.4-2   c0.3-0.6,0.5-1.1,0.5-1.5C134.6,304,134.4,303.5,134.2,303.2z M136.3,358.2h-7v-38.6h7V358.2z M140.1,358.2h-1.6v-38.6h1.6V358.2z    M148.6,358.2H143v-38.6h5.6V358.2z M151.6,358.2h-1.1v-38.6h1.1V358.2z M150,314.7c-1.1,0.8-2.5,1.2-4.2,1.2   c-1.5,0-2.8-0.4-3.8-1.2c-1.1-0.8-1.6-1.9-1.6-3.3l0-0.1h3.5c0,0.5,0.2,0.9,0.5,1.3c0.4,0.3,0.8,0.5,1.3,0.5c0.7,0,1.2-0.2,1.6-0.5   c0.4-0.4,0.6-0.8,0.6-1.3c0-0.8-0.2-1.3-0.6-1.7c-0.4-0.3-1-0.5-1.7-0.5H144v-2.7h1.7c0.7,0,1.2-0.2,1.5-0.5   c0.4-0.4,0.5-0.8,0.5-1.5c0-0.5-0.2-0.9-0.5-1.2c-0.4-0.3-0.8-0.5-1.4-0.5c-0.5,0-0.8,0.1-1.2,0.4c-0.3,0.3-0.5,0.6-0.5,1.1h-3.5   l0-0.1c0-1.2,0.4-2.2,1.5-3c1-0.8,2.3-1.2,3.7-1.2c1.7,0,3,0.4,4.1,1.2c1,0.8,1.5,1.9,1.5,3.3c0,0.7-0.2,1.4-0.6,1.9   c-0.4,0.6-1,1.1-1.7,1.4c0.8,0.3,1.5,0.8,2,1.4c0.5,0.6,0.7,1.4,0.7,2.3C151.6,312.8,151.1,313.9,150,314.7z M159.1,358.2h-6v-38.6   h6V358.2z M161.7,358.2h-0.8v-38.6h0.8V358.2z M162.8,315.7h-3.6v-3.3H153l-0.2-2.2l6.4-10.1v0h3.6v9.5h1.6v2.8h-1.6V315.7z    M166.9,358.2h-3.3v-38.6h3.3V358.2z M174.5,358.2h-5.6v-38.6h5.6V358.2z M175.4,314.4c-1,1-2.3,1.5-3.9,1.5   c-1.7,0-3.1-0.6-4.2-1.7c-1.1-1.1-1.6-2.7-1.6-4.6v-3.1c0-2.1,0.6-3.7,1.8-4.9c1.2-1.2,2.8-1.8,4.7-1.8c0.6,0,1.1,0.1,1.6,0.2   c0.5,0.1,1,0.3,1.6,0.5l-0.6,2.6c-0.5-0.1-0.9-0.3-1.3-0.3c-0.4-0.1-0.8-0.1-1.3-0.1c-0.9,0-1.6,0.3-2.1,0.9   c-0.5,0.6-0.8,1.6-0.8,2.8v0.1c0.4-0.4,0.9-0.7,1.5-0.9c0.6-0.2,1.2-0.3,1.9-0.3c1.3,0,2.4,0.5,3.1,1.5s1.1,2.2,1.1,3.8   C176.9,312.2,176.4,313.4,175.4,314.4z M179.3,358.2h-2.3v-38.6h2.3V358.2z M189.5,358.2h-7v-38.6h7V358.2z M189.6,302.9   c-1.7,1.9-2.8,3.6-3.4,5.2c-0.6,1.6-0.9,3.4-0.9,5.6v2h-3.6v-2c0-2.1,0.4-4,1.1-5.7c0.8-1.7,1.9-3.4,3.3-5h-7.8v-2.8h11.3V302.9z    M193.3,358.2h-1.6v-38.6h1.6V358.2z M201.8,358.2h-5.6v-38.6h5.6V358.2z M200.9,314.7c-1,0.8-2.4,1.2-4,1.2   c-1.7,0-3.1-0.4-4.2-1.2c-1.1-0.8-1.6-1.9-1.6-3.4c0-0.8,0.3-1.6,0.8-2.2c0.5-0.6,1.2-1.1,2.1-1.5c-0.7-0.3-1.3-0.8-1.7-1.4   c-0.4-0.6-0.6-1.3-0.6-2c0-1.4,0.5-2.4,1.4-3.2c1-0.7,2.2-1.1,3.8-1.1c1.5,0,2.7,0.4,3.6,1.1c0.9,0.7,1.4,1.8,1.4,3.2   c0,0.8-0.2,1.4-0.6,2c-0.4,0.6-0.9,1.1-1.6,1.4c0.8,0.4,1.5,0.9,2,1.5c0.5,0.6,0.7,1.4,0.7,2.2C202.5,312.8,202,313.9,200.9,314.7z    M203.4,259.5h-6.9c0-1.9-0.4-3.2-1.2-4c-0.8-0.8-2.1-1.2-3.9-1.2c-1.6,0-2.8,0.6-3.7,1.9c-0.8,1.3-1.3,3-1.3,5.1v6.4   c0,2.1,0.5,3.8,1.4,5.1c0.9,1.3,2.3,1.9,4,1.9c1.6,0,2.8-0.4,3.5-1.2c0.7-0.8,1.1-2.2,1.1-4.1h6.9l0,0.1c0.1,3.5-0.9,6.1-2.9,7.9   c-2,1.8-4.9,2.7-8.5,2.7c-3.8,0-6.8-1.1-9-3.4c-2.3-2.3-3.4-5.3-3.4-9v-6.3c0-3.7,1.1-6.7,3.3-9c2.2-2.3,5.1-3.5,8.7-3.5   c3.9,0,6.8,0.9,8.9,2.7c2.1,1.8,3.1,4.4,3.1,7.8L203.4,259.5z M204.7,358.2h-1.1v-38.6h1.1V358.2z M212.3,358.2h-6v-38.6h6V358.2z    M209,315.9c-0.5,0-1.1-0.1-1.7-0.2c-0.6-0.1-1.1-0.3-1.6-0.5l0.6-2.6c0.5,0.2,0.9,0.3,1.3,0.4c0.4,0.1,0.9,0.1,1.4,0.1   c0.7,0,1.2-0.3,1.6-0.8c0.4-0.5,0.6-1.2,0.6-2.1v-0.9c-0.4,0.4-0.8,0.8-1.2,1c-0.5,0.2-1,0.3-1.5,0.3c-1.4,0-2.5-0.5-3.3-1.4   c-0.8-1-1.2-2.2-1.2-3.8c0-1.5,0.5-2.8,1.5-3.9c1-1.1,2.3-1.6,3.9-1.6c1.6,0,2.9,0.5,3.9,1.6c1,1.1,1.5,2.6,1.5,4.5v3.9   c0,1.8-0.6,3.2-1.7,4.3C212,315.4,210.6,315.9,209,315.9z M214.9,358.2h-0.8v-38.6h0.8V358.2z M214.4,267.5v12.2h-7.1v-30.4h7.1   v11.9h1.5l6.9-11.9h8.9l-9.6,13.8l10.4,16.6h-9.1l-7-12.2H214.4z M219.8,358.2h-3.3v-38.6h3.3V358.2z M227.4,358.2h-5.6v-38.6h5.6   V358.2z M227.6,310c0,1.9-0.5,3.3-1.5,4.4c-1,1.1-2.3,1.6-3.9,1.6c-1.6,0-3-0.5-4-1.6c-1-1.1-1.5-2.5-1.5-4.4v-4.1   c0-1.9,0.5-3.3,1.5-4.4c1-1.1,2.3-1.6,3.9-1.6c1.6,0,2.9,0.5,3.9,1.6s1.5,2.5,1.5,4.4V310z M232.2,358.2h-2.3v-38.6h2.3V358.2z    M230.9,314.3c-1-1.1-1.5-2.5-1.5-4.4v-4.1c0-1.9,0.5-3.3,1.5-4.4c1-1.1,2.3-1.6,3.9-1.6c1.6,0,2.9,0.5,3.9,1.6s1.5,2.5,1.5,4.4   v4.1c0,1.9-0.5,3.3-1.5,4.4c-1,1.1-2.3,1.6-3.9,1.6C233.2,315.9,231.9,315.4,230.9,314.3z M242.4,358.2h-7v-38.6h7V358.2z    M246.2,358.2h-1.6v-38.6h1.6V358.2z M243.4,303.2v-2.8l6.8-0.6v15.8h-3.6v-12.5H243.4z M254.7,358.2h-5.6v-38.6h5.6V358.2z    M257.6,358.2h-1.1v-38.6h1.1V358.2z M265.2,358.2h-6v-38.6h6V358.2z M265.9,315.7H255v-2.4l4.8-5.3c0.6-0.7,1.1-1.4,1.4-2   c0.3-0.6,0.5-1.1,0.5-1.5c0-0.6-0.1-1.1-0.4-1.4c-0.3-0.4-0.7-0.5-1.3-0.5c-0.6,0-1,0.2-1.3,0.7c-0.3,0.5-0.5,1-0.5,1.8h-3.5l0-0.1   c0-1.4,0.4-2.7,1.4-3.7c1-1,2.3-1.5,3.9-1.5c1.7,0,3,0.4,4,1.3c0.9,0.8,1.4,2,1.4,3.5c0,1-0.3,1.9-0.8,2.6   c-0.5,0.8-1.5,1.9-2.8,3.4l-1.9,2.3l0,0.1h6V315.7z M267.8,358.2H267v-38.6h0.8V358.2z M267.5,311.4L267.5,311.4l3.5-0.1   c0,0.5,0.2,0.9,0.5,1.3c0.4,0.3,0.8,0.5,1.3,0.5c0.7,0,1.2-0.2,1.6-0.5c0.4-0.4,0.6-0.8,0.6-1.3c0-0.8-0.2-1.3-0.6-1.7   c-0.4-0.3-1-0.5-1.7-0.5h-1.7v-2.7h1.7c0.7,0,1.2-0.2,1.5-0.5c0.4-0.4,0.5-0.8,0.5-1.5c0-0.5-0.2-0.9-0.5-1.2   c-0.4-0.3-0.8-0.5-1.4-0.5c-0.5,0-0.8,0.1-1.2,0.4c-0.3,0.3-0.5,0.6-0.5,1.1h-3.5l0-0.1c0-1.2,0.4-2.2,1.5-3c1-0.8,2.3-1.2,3.7-1.2   c1.7,0,3,0.4,4.1,1.2c1,0.8,1.5,1.9,1.5,3.3c0,0.7-0.2,1.4-0.6,1.9c-0.4,0.6-1,1.1-1.7,1.4c0.8,0.3,1.5,0.8,2,1.4   c0.5,0.6,0.7,1.4,0.7,2.3c0,1.4-0.5,2.6-1.6,3.4c-1.1,0.8-2.5,1.2-4.2,1.2c-1.5,0-2.8-0.4-3.8-1.2   C267.9,314,267.4,312.9,267.5,311.4z M272.9,358.2h-3.3v-38.6h3.3V358.2z M280.6,358.2H275v-38.6h5.6V358.2z M285.4,358.2h-2.3   v-38.6h2.3V358.2z M286.9,313.7v2h-3.6v-2c0-2.1,0.4-4,1.1-5.7c0.8-1.7,1.9-3.4,3.3-5H280v-2.8h11.3v2.8c-1.7,1.9-2.8,3.6-3.4,5.2   C287.2,309.7,286.9,311.5,286.9,313.7z M295.6,358.2h-7v-38.6h7V358.2z M299.4,358.2h-1.6v-38.6h1.6V358.2z M299.6,313.7v2H296v-2   c0-2.1,0.4-4,1.1-5.7c0.8-1.7,1.9-3.4,3.3-5h-7.8v-2.8H304v2.8c-1.7,1.9-2.8,3.6-3.4,5.2C299.9,309.7,299.6,311.5,299.6,313.7z    M307.9,358.2h-5.6v-38.6h5.6V358.2z M310.8,358.2h-1.1v-38.6h1.1V358.2z M307.2,314.3c-1-1.1-1.5-2.5-1.5-4.4v-4.1   c0-1.9,0.5-3.3,1.5-4.4c1-1.1,2.3-1.6,3.9-1.6c1.6,0,2.9,0.5,3.9,1.6c1,1.1,1.5,2.5,1.5,4.4v4.1c0,1.9-0.5,3.3-1.5,4.4   c-1,1.1-2.3,1.6-3.9,1.6C309.5,315.9,308.2,315.4,307.2,314.3z M318.4,358.2h-6v-38.6h6V358.2z M320.9,358.2h-0.8v-38.6h0.8V358.2z    M329.3,189.4h-23v11.7h19.1v9.7h-19.1v13.5h22.9v9.7h-35.5v-54.3h35.6V189.4z M430.1,213c0.5,0.3,1,0.5,1.8,0.5v3.5l-0.1,0   c-1.4,0-2.7-0.4-3.7-1.4c-1-1-1.5-2.3-1.5-3.9c0-1.7,0.4-3,1.3-4c0.8-0.9,2-1.4,3.5-1.4c1,0,1.9,0.3,2.6,0.8   c0.8,0.5,1.9,1.5,3.4,2.8l2.3,1.9l0.1,0v-6h2.8v10.8h-2.4l-5.3-4.8c-0.7-0.6-1.4-1.1-2-1.4c-0.6-0.3-1.1-0.5-1.5-0.5   c-0.6,0-1.1,0.1-1.4,0.4c-0.4,0.3-0.5,0.7-0.5,1.3C429.4,212.3,429.7,212.7,430.1,213z M442.5,221.5v3.6H430v3.1h-2.8l-0.6-6.8   H442.5z M418.9,346.8h-10.6v-21.3h10.6V346.8z M418.9,308.5h-10.6v-21.3h10.6V308.5z M418.9,270.3h-10.6V249h10.6V270.3z    M418.9,232.1h-10.6v-21.3h10.6V232.1z M418.9,193.8h-10.6v-21.3h10.6V193.8z M418.9,155.6h-10.6v-21.3h10.6V155.6z M442.5,352.2   H430v3.1h-2.8l-0.6-6.8h15.8V352.2z M442.5,343.8h-2.4l-5.3-4.8c-0.7-0.6-1.4-1.1-2-1.4c-0.6-0.3-1.1-0.5-1.5-0.5   c-0.6,0-1.1,0.1-1.4,0.4c-0.4,0.3-0.5,0.7-0.5,1.3c0,0.6,0.2,1,0.7,1.3c0.5,0.3,1,0.5,1.8,0.5v3.5l-0.1,0c-1.4,0-2.7-0.4-3.7-1.4   c-1-1-1.5-2.3-1.5-3.9c0-1.7,0.4-3,1.3-4c0.8-0.9,2-1.4,3.5-1.4c1,0,1.9,0.3,2.6,0.8c0.8,0.5,1.9,1.5,3.4,2.8l2.3,1.9l0.1,0v-6h2.8   V343.8z M441.5,329.7c-0.8,1.1-1.9,1.6-3.3,1.6l-0.1,0v-3.5c0.5,0,0.9-0.2,1.3-0.5c0.3-0.3,0.5-0.8,0.5-1.3c0-0.7-0.2-1.2-0.5-1.6   c-0.4-0.4-0.8-0.6-1.3-0.6c-0.8,0-1.3,0.2-1.7,0.6c-0.3,0.4-0.5,1-0.5,1.7v1.7h-2.7v-1.7c0-0.7-0.2-1.2-0.5-1.5   c-0.3-0.4-0.8-0.5-1.5-0.5c-0.5,0-0.9,0.2-1.2,0.5c-0.3,0.4-0.5,0.8-0.5,1.4c0,0.5,0.1,0.8,0.4,1.2c0.3,0.3,0.6,0.5,1.1,0.5v3.5   l-0.1,0c-1.2,0-2.2-0.4-3-1.5c-0.8-1-1.2-2.3-1.2-3.7c0-1.7,0.4-3,1.2-4.1c0.8-1,1.9-1.5,3.3-1.5c0.7,0,1.4,0.2,1.9,0.6   c0.6,0.4,1.1,1,1.4,1.7c0.3-0.8,0.8-1.5,1.4-2c0.6-0.5,1.4-0.7,2.3-0.7c1.4,0,2.6,0.5,3.4,1.6c0.8,1.1,1.2,2.5,1.2,4.2   C442.7,327.4,442.3,328.6,441.5,329.7z M442.5,308.9v3.6h-3.3v6.2l-2.2,0.2l-10.1-6.4h0v-3.6h9.5v-1.6h2.8v1.6H442.5z M441,304.3   c-1.1,1.1-2.7,1.6-4.6,1.6h-3.1c-2.1,0-3.7-0.6-4.9-1.8c-1.2-1.2-1.8-2.8-1.8-4.7c0-0.6,0.1-1.1,0.2-1.6c0.1-0.5,0.3-1,0.5-1.6   l2.6,0.6c-0.1,0.5-0.3,0.9-0.3,1.3c-0.1,0.4-0.1,0.8-0.1,1.3c0,0.9,0.3,1.6,0.9,2.1c0.6,0.5,1.6,0.8,2.8,0.8h0.1   c-0.4-0.4-0.7-0.9-0.9-1.5c-0.2-0.6-0.3-1.2-0.3-1.9c0-1.3,0.5-2.4,1.5-3.1c1-0.7,2.2-1.1,3.8-1.1c1.5,0,2.8,0.5,3.8,1.5   c1,1,1.5,2.3,1.5,3.9C442.7,301.9,442.1,303.3,441,304.3z M426.9,293.4v-11.3h2.8c1.9,1.7,3.6,2.8,5.2,3.4c1.6,0.6,3.4,0.9,5.6,0.9   h2v3.6h-2c-2.1,0-4-0.4-5.7-1.1c-1.7-0.8-3.4-1.9-5-3.3v7.8H426.9z M441.5,278.9c-0.8,1.1-1.9,1.6-3.4,1.6c-0.8,0-1.6-0.3-2.2-0.8   c-0.6-0.5-1.1-1.2-1.5-2.1c-0.3,0.7-0.8,1.3-1.4,1.7c-0.6,0.4-1.3,0.6-2,0.6c-1.4,0-2.4-0.5-3.2-1.4c-0.7-1-1.1-2.2-1.1-3.8   c0-1.5,0.4-2.7,1.1-3.6c0.7-0.9,1.8-1.4,3.2-1.4c0.8,0,1.4,0.2,2,0.6c0.6,0.4,1.1,0.9,1.4,1.6c0.4-0.8,0.9-1.5,1.5-2   c0.6-0.5,1.4-0.7,2.2-0.7c1.5,0,2.6,0.5,3.4,1.6c0.8,1,1.2,2.4,1.2,4C442.7,276.4,442.3,277.8,441.5,278.9z M442.5,264.4   c-0.1,0.6-0.3,1.1-0.5,1.6l-2.6-0.6c0.2-0.5,0.3-0.9,0.4-1.3c0.1-0.4,0.1-0.9,0.1-1.4c0-0.7-0.3-1.2-0.8-1.6   c-0.5-0.4-1.2-0.6-2.1-0.6h-0.9c0.4,0.4,0.8,0.8,1,1.2c0.2,0.5,0.3,1,0.3,1.5c0,1.4-0.5,2.5-1.4,3.3c-1,0.8-2.2,1.2-3.8,1.2   c-1.5,0-2.8-0.5-3.9-1.5c-1.1-1-1.6-2.3-1.6-3.9c0-1.6,0.5-2.9,1.6-3.9c1.1-1,2.6-1.5,4.5-1.5h3.9c1.8,0,3.2,0.6,4.3,1.7   c1.1,1.1,1.6,2.5,1.6,4.2C442.7,263.2,442.6,263.8,442.5,264.4z M441.1,253.5c-1.1,1-2.5,1.5-4.4,1.5h-4.1c-1.9,0-3.3-0.5-4.4-1.5   c-1.1-1-1.6-2.3-1.6-3.9c0-1.6,0.5-2.9,1.6-3.9c1.1-1,2.5-1.5,4.4-1.5h4.1c1.9,0,3.3,0.5,4.4,1.5c1.1,1,1.6,2.3,1.6,3.9   C442.7,251.1,442.2,252.5,441.1,253.5z M441.1,240.7c-1.1,1-2.5,1.5-4.4,1.5h-4.1c-1.9,0-3.3-0.5-4.4-1.5c-1.1-1-1.6-2.3-1.6-3.9   c0-1.6,0.5-2.9,1.6-3.9c1.1-1,2.5-1.5,4.4-1.5h4.1c1.9,0,3.3,0.5,4.4,1.5c1.1,1,1.6,2.3,1.6,3.9   C442.7,238.4,442.2,239.8,441.1,240.7z M441.5,202.6c-0.8,1.1-1.9,1.6-3.3,1.6l-0.1,0v-3.5c0.5,0,0.9-0.2,1.3-0.5   c0.3-0.3,0.5-0.8,0.5-1.3c0-0.7-0.2-1.2-0.5-1.6c-0.4-0.4-0.8-0.6-1.3-0.6c-0.8,0-1.3,0.2-1.7,0.6c-0.3,0.4-0.5,1-0.5,1.7v1.7h-2.7   v-1.7c0-0.7-0.2-1.2-0.5-1.5c-0.3-0.3-0.8-0.5-1.5-0.5c-0.5,0-0.9,0.2-1.2,0.5c-0.3,0.4-0.5,0.8-0.5,1.4c0,0.5,0.1,0.8,0.4,1.2   c0.3,0.3,0.6,0.5,1.1,0.5v3.5l-0.1,0c-1.2,0-2.2-0.4-3-1.5c-0.8-1-1.2-2.3-1.2-3.7c0-1.7,0.4-3,1.2-4.1c0.8-1,1.9-1.5,3.3-1.5   c0.7,0,1.4,0.2,1.9,0.6c0.6,0.4,1.1,1,1.4,1.7c0.3-0.8,0.8-1.5,1.4-2c0.6-0.5,1.4-0.7,2.3-0.7c1.4,0,2.6,0.5,3.4,1.6   c0.8,1.1,1.2,2.5,1.2,4.2C442.7,200.3,442.3,201.5,441.5,202.6z M429.7,180.4c1.9,1.7,3.6,2.8,5.2,3.4c1.6,0.6,3.4,0.9,5.6,0.9h2   v3.6h-2c-2.1,0-4-0.4-5.7-1.1c-1.7-0.8-3.4-1.9-5-3.3v7.8h-2.8v-11.3H429.7z M426.9,179v-11.3h2.8c1.9,1.7,3.6,2.8,5.2,3.4   c1.6,0.6,3.4,0.9,5.6,0.9h2v3.6h-2c-2.1,0-4-0.4-5.7-1.1c-1.7-0.8-3.4-1.9-5-3.3v7.8H426.9z M441.1,164.5c-1.1,1-2.5,1.5-4.4,1.5   h-4.1c-1.9,0-3.3-0.5-4.4-1.5c-1.1-1-1.6-2.3-1.6-3.9c0-1.6,0.5-2.9,1.6-3.9c1.1-1,2.5-1.5,4.4-1.5h4.1c1.9,0,3.3,0.5,4.4,1.5   c1.1,1,1.6,2.3,1.6,3.9C442.7,162.2,442.2,163.5,441.1,164.5z M498.3,361.3h-51.9V358h51.9V361.3z M498.3,355.9h-51.9v-5.6h51.9   V355.9z M498.3,347.8h-51.9v-2.3h51.9V347.8z M498.3,342.3h-51.9v-7h51.9V342.3z M498.3,333.1h-51.9v-1.6h51.9V333.1z M498.3,328.6   h-51.9V323h51.9V328.6z M498.3,321.2h-51.9v-1.1h51.9V321.2z M498.3,318.5h-51.9v-6h51.9V318.5z M498.3,310.8h-51.9V310h51.9V310.8   z M498.3,308.1h-51.9v-3.3h51.9V308.1z M498.3,302.7h-51.9v-5.6h51.9V302.7z M498.3,294.6h-51.9v-2.3h51.9V294.6z M498.3,289.1   h-51.9v-7h51.9V289.1z M498.3,279.9h-51.9v-1.6h51.9V279.9z M498.3,275.4h-51.9v-5.6h51.9V275.4z M498.3,268h-51.9v-1.1h51.9V268z    M498.3,265.3h-51.9v-6h51.9V265.3z M498.3,257.6h-51.9v-0.8h51.9V257.6z M498.3,255.2h-51.9v-3.3h51.9V255.2z M498.3,249.9h-51.9   v-5.6h51.9V249.9z M498.3,241.7h-51.9v-2.3h51.9V241.7z M498.3,236.3h-51.9v-7h51.9V236.3z M498.3,227.1h-51.9v-1.6h51.9V227.1z    M498.3,222.6h-51.9V217h51.9V222.6z M498.3,215.2h-51.9v-1.1h51.9V215.2z M498.3,212.5h-51.9v-6h51.9V212.5z M498.3,204.7h-51.9   v-0.8h51.9V204.7z M498.3,202h-51.9v-3.3h51.9V202z M498.3,196.7h-51.9v-5.6h51.9V196.7z M498.3,188.5h-51.9v-2.3h51.9V188.5z    M498.3,183.1h-51.9v-7h51.9V183.1z M498.3,173.9h-51.9v-1.6h51.9V173.9z M498.3,169.4h-51.9v-5.6h51.9V169.4z M498.3,162h-51.9   v-1.1h51.9V162z M498.3,159.3h-51.9v-6h51.9V159.3z M498.3,151.5h-51.9v-0.8h51.9V151.5z" id="XMLID_188_"/><path class="st0" d="M192.3,225.1c3.3,0,5.9-1.2,7.7-3.7c1.8-2.5,2.7-5.7,2.7-9.6v-9.8c0-3.9-0.9-7.1-2.7-9.5   c-1.8-2.5-4.4-3.7-7.7-3.7c-3.4,0-6,1.2-7.8,3.7c-1.8,2.5-2.7,5.7-2.7,9.6v9.8c0,3.9,0.9,7.1,2.7,9.6   C186.3,223.8,188.9,225.1,192.3,225.1z" id="XMLID_187_"/></g></svg>