<?xml version="1.0" standalone="no"?>
<!DOCTYPE svg PUBLIC "-//W3C//DTD SVG 20010904//EN"
 "http://www.w3.org/TR/2001/REC-SVG-20010904/DTD/svg10.dtd">
<svg version="1.0" xmlns="http://www.w3.org/2000/svg"
 width="1027.000000pt" height="646.000000pt" viewBox="0 0 1027.000000 646.000000"
 preserveAspectRatio="xMidYMid meet" id="istiklol">
<metadata>
Created by potrace 1.15, written by Peter Selinger 2001-2017
</metadata>
<g transform="translate(0.000000,646.000000) scale(0.100000,-0.100000)"
fill="#000000" stroke="none">

<path id="0" d="M6420 4135 l0 -755 1210 0 1210 0 0 520 0 520 -35 0 c-43 0 -380 117
-491 170 -81 39 -194 129 -194 155 0 8 -8 16 -18 19 -23 8 -82 85 -82 108 0
17 -33 18 -800 18 l-800 0 0 -755z"/>
<path id="1" d="M3890 4135 l0 -745 1245 0 1245 0 0 745 0 745 -1245 0 -1245 0 0
-745z"/>
<path id="2" d="M2370 4850 c0 -12 -7 -20 -16 -20 -21 0 -114 -43 -114 -52 0 -5 -10
-8 -22 -8 -12 0 -99 -38 -193 -85 -204 -101 -329 -145 -413 -145 l-59 0 -7
-46 c-9 -67 -8 -1106 1 -1113 5 -3 527 -5 1161 -3 l1152 2 0 745 0 745 -745 0
c-738 0 -745 0 -745 -20z"/>
<path id="3" d="M1939 3333 c0 -42 0 -1854 1 -1890 0 -13 5 -23 11 -23 16 0 89 -72
83 -82 -3 -4 3 -8 14 -8 10 0 28 -10 39 -22 36 -40 83 -121 83 -145 l0 -23
845 0 845 0 0 1115 0 1115 -960 0 -960 0 -1 -37z"/>
<path id="4" d="M3880 2240 l0 -1120 1260 0 1260 0 0 1120 0 1120 -1260 0 -1260 0 0
-1120z"/>
<path id="5" d="M6420 2260 l0 -1100 845 0 845 0 0 28 c0 15 14 49 30 76 35 54 109
96 173 96 l37 0 1 503 c1 598 1 1431 0 1470 l-1 27 -965 0 -965 0 0 -1100z"/>
</g>
</svg>
